HIERARCHY
ROOT Hips
{
	OFFSET 0.000000 0.000000 0.000000
	CHANNELS 6 Xposition Yposition Zposition Xrotation Yrotation Zrotation
	JOINT Spine
	{
		OFFSET 0.000000 0.042231 0.063346
		CHANNELS 3 Xrotation Yrotation Zrotation
		JOINT Spine1
		{
			OFFSET 0.000000 0.014667 0.083179
			CHANNELS 3 Xrotation Yrotation Zrotation
			JOINT Spine2
			{
				OFFSET 0.000000 0.007361 0.084141
				CHANNELS 3 Xrotation Yrotation Zrotation
				JOINT Spine3
				{
					OFFSET 0.000000 0.000000 0.084462
					CHANNELS 3 Xrotation Yrotation Zrotation
					JOINT Neck
					{
						OFFSET 0.000000 -0.031673 0.221713
						CHANNELS 3 Xrotation Yrotation Zrotation
						JOINT Head
						{
							OFFSET 0.000000 -0.020167 0.114371
							CHANNELS 3 Xrotation Yrotation Zrotation
							End Site
							{
								OFFSET 0.000000 0.000000 0.000000
							}
						}
					}
					JOINT RightShoulder
					{
						OFFSET -0.029161 -0.048602 0.157471
						CHANNELS 3 Xrotation Yrotation Zrotation
						JOINT RightArm
						{
							OFFSET -0.144834 0.000000 0.000000
							CHANNELS 3 Xrotation Yrotation Zrotation
							JOINT RightForeArm
							{
								OFFSET -0.274949 0.000000 0.000000
								CHANNELS 3 Xrotation Yrotation Zrotation
								JOINT RightHand
								{
									OFFSET -0.254725 0.000000 0.000000
									CHANNELS 3 Xrotation Yrotation Zrotation
									JOINT RightHandEnd
									{
										OFFSET -0.068160 0.000000 0.000000
										CHANNELS 3 Xrotation Yrotation Zrotation
										End Site
										{
											OFFSET 0.000000 0.000000 0.000000
										}
									}
									JOINT RightHandThumb1
									{
										OFFSET -0.027264 -0.045440 -0.018176
										CHANNELS 3 Xrotation Yrotation Zrotation
										End Site
										{
											OFFSET 0.000000 0.000000 0.000000
										}
									}
								}
							}
						}
					}
					JOINT LeftShoulder
					{
						OFFSET 0.029161 -0.048602 0.157471
						CHANNELS 3 Xrotation Yrotation Zrotation
						JOINT LeftArm
						{
							OFFSET 0.144834 0.000000 0.000000
							CHANNELS 3 Xrotation Yrotation Zrotation
							JOINT LeftForeArm
							{
								OFFSET 0.274949 0.000000 0.000000
								CHANNELS 3 Xrotation Yrotation Zrotation
								JOINT LeftHand
								{
									OFFSET 0.254725 0.000000 0.000000
									CHANNELS 3 Xrotation Yrotation Zrotation
									JOINT LeftHandEnd
									{
										OFFSET 0.068160 0.000000 0.000000
										CHANNELS 3 Xrotation Yrotation Zrotation
										End Site
										{
											OFFSET 0.000000 0.000000 0.000000
										}
									}
									JOINT LeftHandThumb1
									{
										OFFSET 0.027264 -0.045440 -0.018176
										CHANNELS 3 Xrotation Yrotation Zrotation
										End Site
										{
											OFFSET 0.000000 0.000000 0.000000
										}
									}
								}
							}
						}
					}
				}
			}
		}
	}
	JOINT RightUpLeg
	{
		OFFSET -0.086512 0.000000 -0.025273
		CHANNELS 3 Xrotation Yrotation Zrotation
		JOINT RightLeg
		{
			OFFSET 0.000000 0.000000 -0.433119
			CHANNELS 3 Xrotation Yrotation Zrotation
			JOINT RightFoot
			{
				OFFSET 0.000000 0.000000 -0.404688
				CHANNELS 3 Xrotation Yrotation Zrotation
				JOINT RightToeBase
				{
					OFFSET 0.000000 -0.126496 -0.046041
					CHANNELS 3 Xrotation Yrotation Zrotation
					End Site
					{
						OFFSET 0.000000 0.000000 0.000000
					}
				}
			}
		}
	}
	JOINT LeftUpLeg
	{
		OFFSET 0.086512 0.000000 -0.025273
		CHANNELS 3 Xrotation Yrotation Zrotation
		JOINT LeftLeg
		{
			OFFSET 0.000000 0.000000 -0.433119
			CHANNELS 3 Xrotation Yrotation Zrotation
			JOINT LeftFoot
			{
				OFFSET 0.000000 0.000000 -0.404688
				CHANNELS 3 Xrotation Yrotation Zrotation
				JOINT LeftToeBase
				{
					OFFSET 0.000000 -0.126496 -0.046041
					CHANNELS 3 Xrotation Yrotation Zrotation
					End Site
					{
						OFFSET 0.000000 0.000000 0.000000
					}
				}
			}
		}
	}
}
MOTION
Frames: 7
Frame Time: 0.033333
-0.219194 -0.336184 0.905048 -2.202800 0.721700 114.091700 0.487000 -2.934900 0.248400 0.291900 0.075500 -0.178400 2.108100 -1.316400 -3.060100 0.743800 0.636300 -0.529800 0.080500 -1.024500 -6.196500 -1.773100 -1.568700 -8.224700 5.347500 -11.606100 2.152000 45.408100 -34.330400 49.182500 0.000000 0.000000 35.343100 -6.763000 23.655700 3.595900 0.000000 0.000000 0.000000 0.000000 0.000000 0.000000 12.050000 5.249300 -4.140400 52.730600 27.917100 -55.015500 0.000000 0.000000 -29.942200 -12.073600 -12.302200 -2.048300 0.000000 0.000000 0.000000 0.000000 0.000000 0.000000 -3.567000 -4.036900 -17.128200 10.396900 0.000000 0.000000 -11.480700 8.614100 -4.672100 -0.448700 0.000000 0.000000 -16.261800 -15.801300 -2.088500 23.958000 0.000000 0.000000 -5.869900 6.727500 17.108700 -12.192500 0.000000 0.000000 
-0.219718 -0.317124 0.904476 -3.018500 0.969100 109.830700 0.401100 -3.099600 0.171500 0.209100 0.136100 -0.194100 2.200400 -1.581200 -3.296800 0.785000 0.585000 -0.510400 0.075200 -1.211100 -6.422200 -1.685100 -1.838200 -8.412400 5.239000 -12.045700 1.979900 44.020500 -34.818500 48.099400 0.000000 0.000000 35.132900 -6.574000 24.199000 3.135600 0.000000 0.000000 0.000000 0.000000 0.000000 0.000000 12.069700 5.077000 -4.358100 52.995300 27.563200 -55.136600 0.000000 0.000000 -29.554500 -11.967300 -11.895500 -1.880400 0.000000 0.000000 0.000000 0.000000 0.000000 0.000000 -3.910600 -3.563000 -15.073300 10.661400 0.000000 0.000000 -11.547100 7.286200 -3.162400 -0.403100 0.000000 0.000000 -15.177200 -17.359500 -2.608000 18.703700 0.000000 0.000000 -4.938300 9.122900 12.384400 -12.198100 0.000000 0.000000 
-0.219977 -0.296700 0.904060 -3.553600 1.324700 105.787400 0.295400 -3.168600 0.116700 0.142400 0.243400 -0.205600 2.394800 -1.658300 -3.498000 0.822400 0.613400 -0.551600 -0.050900 -1.475400 -6.766500 -1.431700 -2.137200 -8.820300 5.196200 -12.520300 1.889300 42.324400 -35.938400 46.635700 0.000000 0.000000 34.560300 -6.656800 24.638700 2.825000 0.000000 0.000000 0.000000 0.000000 0.000000 0.000000 11.976400 4.886900 -4.544700 52.977100 27.194100 -55.112000 0.000000 0.000000 -29.340000 -11.420400 -11.533700 -1.743600 0.000000 0.000000 0.000000 0.000000 0.000000 0.000000 -4.195300 -2.760600 -12.721700 10.690000 0.000000 0.000000 -11.501700 5.741300 -1.912200 -0.128400 0.000000 0.000000 -14.024300 -18.188700 1.657100 14.223400 0.000000 0.000000 -3.782800 13.310300 11.858700 -12.461600 0.000000 0.000000 
-0.219875 -0.273700 0.903496 -3.783800 1.649700 101.876700 0.264100 -3.090300 0.068700 0.065300 0.223600 -0.217400 2.623500 -1.658300 -3.705300 0.833300 0.706700 -0.646100 -0.173500 -1.572700 -7.046800 -1.052800 -2.324000 -9.211800 5.189600 -12.818900 1.950500 40.686900 -37.019200 45.030100 0.000000 0.000000 33.513700 -7.249700 24.923000 2.656400 0.000000 0.000000 0.000000 0.000000 0.000000 0.000000 11.830300 4.999300 -4.675500 52.605700 27.037200 -54.777700 0.000000 0.000000 -29.448200 -10.893000 -11.477800 -1.536200 0.000000 0.000000 0.000000 0.000000 0.000000 0.000000 -4.418200 -1.575200 -9.949300 10.658000 0.000000 0.000000 -11.338100 4.199400 -1.193100 0.058400 0.000000 0.000000 -12.487000 -17.912400 9.785700 10.607300 0.000000 0.000000 -2.284300 16.533000 11.952300 -11.864400 0.000000 0.000000 
-0.219570 -0.247830 0.902792 -3.581800 2.052300 98.005800 0.233400 -2.519800 0.030200 -0.071100 0.038900 -0.238900 2.866000 -1.803200 -3.901300 0.845300 0.790300 -0.723800 -0.275600 -1.437000 -7.193700 -0.676700 -2.438500 -9.519300 5.057100 -13.155100 2.049200 39.342700 -37.159400 43.292600 0.000000 0.000000 32.047700 -8.133200 24.980200 2.380300 0.000000 0.000000 0.000000 0.000000 0.000000 0.000000 11.667000 5.571700 -4.786400 51.902400 26.990900 -54.252400 0.000000 0.000000 -29.725000 -10.819500 -11.877700 -1.275900 0.000000 0.000000 0.000000 0.000000 0.000000 0.000000 -4.861100 0.164800 -6.874200 10.760900 0.000000 0.000000 -11.133300 2.766300 -0.883000 0.197500 0.000000 0.000000 -10.906100 -16.480900 17.314400 8.386800 0.000000 0.000000 -0.462800 15.979700 10.508600 -9.522200 0.000000 0.000000 
-0.219105 -0.220368 0.902536 -2.598600 2.465000 94.354900 0.277400 -1.195200 -0.021900 -0.181100 0.051900 -0.240900 3.035600 -2.051200 -4.070500 0.865400 0.793800 -0.716500 -0.394400 -1.495700 -7.456600 -0.429200 -2.587900 -9.828400 4.748500 -13.862600 1.909800 38.307600 -36.407300 41.506100 0.000000 0.000000 30.242500 -8.690600 24.803600 2.069200 0.000000 0.000000 0.000000 0.000000 0.000000 0.000000 11.446700 6.029500 -5.019300 51.114500 26.972900 -53.983600 0.000000 0.000000 -29.810400 -11.114600 -12.499500 -1.116200 0.000000 0.000000 0.000000 0.000000 0.000000 0.000000 -5.574100 2.722500 -3.614000 11.085100 0.000000 0.000000 -10.972800 1.273600 -0.844500 0.621100 0.000000 0.000000 -9.752300 -14.177500 21.026900 8.014600 0.000000 0.000000 0.452000 13.161100 9.822800 -6.192800 0.000000 0.000000 
-0.218816 -0.193203 0.902934 -0.803600 2.889300 91.188700 0.363100 0.545700 -0.142100 -0.147000 0.563900 -0.203700 2.926200 -1.997700 -4.172400 0.842500 0.751600 -0.650200 -0.467400 -2.077600 -8.093000 -0.344800 -2.791800 -10.198900 4.535500 -14.658600 1.400100 37.155200 -36.422900 39.910200 0.000000 0.000000 28.207000 -8.171600 24.790000 1.913900 0.000000 0.000000 0.000000 0.000000 0.000000 0.000000 11.064100 5.707000 -5.501400 50.579000 27.013300 -54.109600 0.000000 0.000000 -29.680300 -11.393200 -12.829800 -1.140100 0.000000 0.000000 0.000000 0.000000 0.000000 0.000000 -6.872600 5.969800 -0.335100 12.018600 0.000000 0.000000 -10.883300 -0.074700 -1.555000 0.668700 0.000000 0.000000 -9.305500 -11.295600 22.590100 8.892400 0.000000 0.000000 -0.073100 11.821300 11.337600 -3.357700 0.000000 0.000000 
